ffmpeg started on 2025-06-07 at 15:46:26
Report written to "D:\Convert\FFMetrics\reports\psnr_report-6.txt"
Log level: 32
Command line:
ffmpeg -hide_banner -nostdin -i "G:\\\xc0\xed\xe8\xec\xe5\\\xce\xed\xe3\xee\xe8\xed\xe3\xe8\\!_36_\xce\xf1\xe5\xed\xfc_2024\\DreamCast\\\xd1\xee\xe1\xeb\xe0\xe7\xed 2,5-\xec\xe5\xf0\xed\xee\xe3\xee \xe8\xe7\xec\xe5\xf0\xe5\xed\xe8\xff\\[DC] 2-5 Jigen no Ririsa - 22_Telegram_HEVC.mkv" -i "G:\\\xc0\xed\xe8\xec\xe5\\\xce\xed\xe3\xee\xe8\xed\xe3\xe8\\!_36_\xce\xf1\xe5\xed\xfc_2024\\DreamCast\\\xd1\xee\xe1\xeb\xe0\xe7\xed 2,5-\xec\xe5\xf0\xed\xee\xe3\xee \xe8\xe7\xec\xe5\xf0\xe5\xed\xe8\xff\\[DC] 2-5 Jigen no Ririsa - 22_Telegram.mp4" -lavfi "[0:v]settb=AVTB,setpts=PTS-STARTPTS,format=pix_fmts=yuv420p10,fps=24000/1001,scale=1920:1080:flags=bicubic[main];[1:v]settb=AVTB,setpts=PTS-STARTPTS,format=pix_fmts=yuv420p,fps=24000/1001,scale=1920:1080:flags=bicubic[ref];[main][ref]psnr=eof_action=endall:stats_file='D\\:/Convert/FFMetrics/logs/psnr_logfile-6.txt'" -f null -
Input #0, matroska,webm, from 'G:\Аниме\Онгоинги\!_36_Осень_2024\DreamCast\Соблазн 2,5-мерного измерения\[DC] 2-5 Jigen no Ririsa - 22_Telegram_HEVC.mkv':
  Metadata:
    COMPATIBLE_BRANDS: isomiso2avc1mp41
    MAJOR_BRAND     : isom
    MINOR_VERSION   : 512
    ENCODER         : Lavf61.7.100
  Duration: 00:24:09.13, start: -0.021000, bitrate: 1233 kb/s
  Stream #0:0: Video: hevc (Main 10), yuv420p10le(tv, bt709, progressive), 1920x1080 [SAR 1:1 DAR 16:9], 23.98 fps, 23.98 tbr, 1k tbn (default)
      Metadata:
        HANDLER_NAME    : VideoHandler
        VENDOR_ID       : [0][0][0][0]
        ENCODER         : Lavc61.19.100 libx265
        BPS             : 1035893
        DURATION        : 00:24:08.989708333
        NUMBER_OF_FRAMES: 34741
        NUMBER_OF_BYTES : 187624739
        _STATISTICS_WRITING_APP: mkvpropedit v66.0.0 ('Josie') 64-bit
        _STATISTICS_WRITING_DATE_UTC: 2025-06-04 13:39:02
        _STATISTICS_TAGS: BPS DURATION NUMBER_OF_FRAMES NUMBER_OF_BYTES
  Stream #0:1: Audio: aac (LC), 48000 Hz, stereo, fltp (default)
      Metadata:
        HANDLER_NAME    : SoundHandler
        VENDOR_ID       : [0][0][0][0]
        ENCODER         : Lavc61.19.100 aac
        BPS             : 193624
        DURATION        : 00:24:09.130000000
        NUMBER_OF_FRAMES: 67929
        NUMBER_OF_BYTES : 35073327
        _STATISTICS_WRITING_APP: mkvpropedit v66.0.0 ('Josie') 64-bit
        _STATISTICS_WRITING_DATE_UTC: 2025-06-04 13:39:02
        _STATISTICS_TAGS: BPS DURATION NUMBER_OF_FRAMES NUMBER_OF_BYTES
Input #1, mov,mp4,m4a,3gp,3g2,mj2, from 'G:\Аниме\Онгоинги\!_36_Осень_2024\DreamCast\Соблазн 2,5-мерного измерения\[DC] 2-5 Jigen no Ririsa - 22_Telegram.mp4':
  Metadata:
    major_brand     : isom
    minor_version   : 512
    compatible_brands: isomiso2avc1mp41
    encoder         : Lavf61.1.100
  Duration: 00:24:09.08, start: 0.000000, bitrate: 3894 kb/s
  Stream #1:0[0x1](und): Video: h264 (High) (avc1 / 0x31637661), yuv420p(tv, bt709, progressive), 1920x1080 [SAR 1:1 DAR 16:9], 3746 kb/s, 23.98 fps, 23.98 tbr, 24k tbn (default)
      Metadata:
        handler_name    : VideoHandler
        vendor_id       : [0][0][0][0]
        encoder         : Lavc61.3.100 h264_qsv
  Stream #1:1[0x2](und): Audio: aac (HE-AACv2) (mp4a / 0x6134706D), 48000 Hz, stereo, fltp, 144 kb/s (default)
      Metadata:
        handler_name    : SoundHandler
        vendor_id       : [0][0][0][0]
Stream mapping:
  Stream #0:0 (hevc) -> settb:default
  Stream #1:0 (h264) -> settb:default
  psnr:default -> Stream #0:0 (wrapped_avframe)
  Stream #0:1 -> #0:1 (aac (native) -> pcm_s16le (native))
Output #0, null, to 'pipe:':
  Metadata:
    COMPATIBLE_BRANDS: isomiso2avc1mp41
    MAJOR_BRAND     : isom
    MINOR_VERSION   : 512
    encoder         : Lavf61.7.100
  Stream #0:0: Video: wrapped_avframe, yuv420p10le(tv, bt709, progressive), 1920x1080 [SAR 1:1 DAR 16:9], q=2-31, 200 kb/s, 23.98 fps, 23.98 tbn
      Metadata:
        encoder         : Lavc61.19.100 wrapped_avframe
  Stream #0:1: Audio: pcm_s16le, 48000 Hz, stereo, s16, 1536 kb/s (default)
      Metadata:
        HANDLER_NAME    : SoundHandler
        VENDOR_ID       : [0][0][0][0]
        _STATISTICS_TAGS: BPS DURATION NUMBER_OF_FRAMES NUMBER_OF_BYTES
        BPS             : 193624
        DURATION        : 00:24:09.130000000
        NUMBER_OF_FRAMES: 67929
        NUMBER_OF_BYTES : 35073327
        _STATISTICS_WRITING_APP: mkvpropedit v66.0.0 ('Josie') 64-bit
        _STATISTICS_WRITING_DATE_UTC: 2025-06-04 13:39:02
        encoder         : Lavc61.19.100 pcm_s16le
frame=  179 fps=0.0 q=-0.0 size=N/A time=00:00:07.46 bitrate=N/A speed=14.4x    frame=  379 fps=368 q=-0.0 size=N/A time=00:00:15.80 bitrate=N/A speed=15.4x    frame=  648 fps=421 q=-0.0 size=N/A time=00:00:27.02 bitrate=N/A speed=17.5x    frame=  914 fps=443 q=-0.0 size=N/A time=00:00:38.12 bitrate=N/A speed=18.5x    frame= 1175 fps=456 q=-0.0 size=N/A time=00:00:49.00 bitrate=N/A speed=  19x    frame= 1440 fps=466 q=-0.0 size=N/A time=00:01:00.06 bitrate=N/A speed=19.5x    frame= 1702 fps=471 q=-0.0 size=N/A time=00:01:10.98 bitrate=N/A speed=19.7x    frame= 1961 fps=476 q=-0.0 size=N/A time=00:01:21.79 bitrate=N/A speed=19.8x    frame= 2161 fps=466 q=-0.0 size=N/A time=00:01:30.13 bitrate=N/A speed=19.5x    frame= 2393 fps=464 q=-0.0 size=N/A time=00:01:39.80 bitrate=N/A speed=19.3x    frame= 2626 fps=463 q=-0.0 size=N/A time=00:01:49.52 bitrate=N/A speed=19.3x    frame= 2861 fps=463 q=-0.0 size=N/A time=00:01:59.32 bitrate=N/A speed=19.3x    frame= 3114 fps=464 q=-0.0 size=N/A time=00:02:09.87 bitrate=N/A speed=19.4x    frame= 3307 fps=458 q=-0.0 size=N/A time=00:02:17.92 bitrate=N/A speed=19.1x    frame= 3468 fps=449 q=-0.0 size=N/A time=00:02:24.64 bitrate=N/A speed=18.7x    frame= 3668 fps=444 q=-0.0 size=N/A time=00:02:32.98 bitrate=N/A speed=18.5x    frame= 3885 fps=443 q=-0.0 size=N/A time=00:02:42.03 bitrate=N/A speed=18.5x    frame= 4106 fps=443 q=-0.0 size=N/A time=00:02:51.25 bitrate=N/A speed=18.5x    frame= 4326 fps=441 q=-0.0 size=N/A time=00:03:00.43 bitrate=N/A speed=18.4x    frame= 4539 fps=440 q=-0.0 size=N/A time=00:03:09.31 bitrate=N/A speed=18.4x    frame= 4796 fps=443 q=-0.0 size=N/A time=00:03:20.03 bitrate=N/A speed=18.5x    frame= 5060 fps=446 q=-0.0 size=N/A time=00:03:31.04 bitrate=N/A speed=18.6x    frame= 5284 fps=446 q=-0.0 size=N/A time=00:03:40.38 bitrate=N/A speed=18.6x    frame= 5515 fps=446 q=-0.0 size=N/A time=00:03:50.02 bitrate=N/A speed=18.6x    frame= 5782 fps=449 q=-0.0 size=N/A time=00:04:01.15 bitrate=N/A speed=18.7x    frame= 6040 fps=450 q=-0.0 size=N/A time=00:04:11.91 bitrate=N/A speed=18.8x    frame= 6302 fps=453 q=-0.0 size=N/A time=00:04:22.84 bitrate=N/A speed=18.9x    frame= 6540 fps=453 q=-0.0 size=N/A time=00:04:32.77 bitrate=N/A speed=18.9x    frame= 6788 fps=454 q=-0.0 size=N/A time=00:04:43.11 bitrate=N/A speed=18.9x    frame= 7018 fps=454 q=-0.0 size=N/A time=00:04:52.70 bitrate=N/A speed=18.9x    frame= 7270 fps=455 q=-0.0 size=N/A time=00:05:03.21 bitrate=N/A speed=  19x    frame= 7501 fps=454 q=-0.0 size=N/A time=00:05:12.85 bitrate=N/A speed=  19x    frame= 7738 fps=455 q=-0.0 size=N/A time=00:05:22.73 bitrate=N/A speed=  19x    frame= 7996 fps=456 q=-0.0 size=N/A time=00:05:33.49 bitrate=N/A speed=  19x    frame= 8256 fps=458 q=-0.0 size=N/A time=00:05:44.34 bitrate=N/A speed=19.1x    frame= 8484 fps=457 q=-0.0 size=N/A time=00:05:53.85 bitrate=N/A speed=19.1x    frame= 8750 fps=459 q=-0.0 size=N/A time=00:06:04.94 bitrate=N/A speed=19.1x    frame= 9013 fps=460 q=-0.0 size=N/A time=00:06:15.91 bitrate=N/A speed=19.2x    frame= 9225 fps=459 q=-0.0 size=N/A time=00:06:24.75 bitrate=N/A speed=19.1x    frame= 9449 fps=458 q=-0.0 size=N/A time=00:06:34.10 bitrate=N/A speed=19.1x    frame= 9639 fps=456 q=-0.0 size=N/A time=00:06:42.02 bitrate=N/A speed=  19x    frame= 9908 fps=457 q=-0.0 size=N/A time=00:06:53.24 bitrate=N/A speed=19.1x    frame=10167 fps=459 q=-0.0 size=N/A time=00:07:04.04 bitrate=N/A speed=19.1x    frame=10430 fps=460 q=-0.0 size=N/A time=00:07:15.01 bitrate=N/A speed=19.2x    frame=10689 fps=461 q=-0.0 size=N/A time=00:07:25.82 bitrate=N/A speed=19.2x    frame=10941 fps=461 q=-0.0 size=N/A time=00:07:36.33 bitrate=N/A speed=19.2x    frame=11204 fps=462 q=-0.0 size=N/A time=00:07:47.30 bitrate=N/A speed=19.3x    frame=11470 fps=463 q=-0.0 size=N/A time=00:07:58.39 bitrate=N/A speed=19.3x    frame=11713 fps=464 q=-0.0 size=N/A time=00:08:08.52 bitrate=N/A speed=19.3x    frame=11956 fps=464 q=-0.0 size=N/A time=00:08:18.66 bitrate=N/A speed=19.3x    frame=12199 fps=464 q=-0.0 size=N/A time=00:08:28.79 bitrate=N/A speed=19.3x    frame=12424 fps=463 q=-0.0 size=N/A time=00:08:38.18 bitrate=N/A speed=19.3x    frame=12683 fps=464 q=-0.0 size=N/A time=00:08:48.98 bitrate=N/A speed=19.4x    frame=12924 fps=464 q=-0.0 size=N/A time=00:08:59.03 bitrate=N/A speed=19.4x    frame=13131 fps=463 q=-0.0 size=N/A time=00:09:07.67 bitrate=N/A speed=19.3x    frame=13324 fps=461 q=-0.0 size=N/A time=00:09:15.72 bitrate=N/A speed=19.2x    frame=13579 fps=462 q=-0.0 size=N/A time=00:09:26.35 bitrate=N/A speed=19.3x    frame=13800 fps=461 q=-0.0 size=N/A time=00:09:35.57 bitrate=N/A speed=19.2x    frame=14026 fps=461 q=-0.0 size=N/A time=00:09:45.00 bitrate=N/A speed=19.2x    frame=14268 fps=461 q=-0.0 size=N/A time=00:09:55.09 bitrate=N/A speed=19.2x    frame=14522 fps=462 q=-0.0 size=N/A time=00:10:05.68 bitrate=N/A speed=19.3x    frame=14770 fps=462 q=-0.0 size=N/A time=00:10:16.03 bitrate=N/A speed=19.3x    frame=15026 fps=463 q=-0.0 size=N/A time=00:10:26.70 bitrate=N/A speed=19.3x    frame=15284 fps=463 q=-0.0 size=N/A time=00:10:37.47 bitrate=N/A speed=19.3x    frame=15530 fps=463 q=-0.0 size=N/A time=00:10:47.73 bitrate=N/A speed=19.3x    frame=15788 fps=464 q=-0.0 size=N/A time=00:10:58.49 bitrate=N/A speed=19.4x    frame=16013 fps=464 q=-0.0 size=N/A time=00:11:07.87 bitrate=N/A speed=19.3x    frame=16252 fps=464 q=-0.0 size=N/A time=00:11:17.84 bitrate=N/A speed=19.3x    frame=16497 fps=464 q=-0.0 size=N/A time=00:11:28.06 bitrate=N/A speed=19.3x    frame=16764 fps=464 q=-0.0 size=N/A time=00:11:39.19 bitrate=N/A speed=19.4x    frame=16999 fps=464 q=-0.0 size=N/A time=00:11:48.99 bitrate=N/A speed=19.4x    frame=17252 fps=465 q=-0.0 size=N/A time=00:11:59.55 bitrate=N/A speed=19.4x    frame=17488 fps=465 q=-0.0 size=N/A time=00:12:09.39 bitrate=N/A speed=19.4x    frame=17726 fps=465 q=-0.0 size=N/A time=00:12:19.32 bitrate=N/A speed=19.4x    frame=17966 fps=465 q=-0.0 size=N/A time=00:12:29.33 bitrate=N/A speed=19.4x    frame=18222 fps=465 q=-0.0 size=N/A time=00:12:40.00 bitrate=N/A speed=19.4x    frame=18478 fps=465 q=-0.0 size=N/A time=00:12:50.68 bitrate=N/A speed=19.4x    frame=18669 fps=464 q=-0.0 size=N/A time=00:12:58.65 bitrate=N/A speed=19.4x    frame=18917 fps=464 q=-0.0 size=N/A time=00:13:08.99 bitrate=N/A speed=19.4x    frame=19179 fps=465 q=-0.0 size=N/A time=00:13:19.92 bitrate=N/A speed=19.4x    frame=19450 fps=466 q=-0.0 size=N/A time=00:13:31.22 bitrate=N/A speed=19.4x    frame=19703 fps=466 q=-0.0 size=N/A time=00:13:41.77 bitrate=N/A speed=19.4x    frame=19966 fps=466 q=-0.0 size=N/A time=00:13:52.74 bitrate=N/A speed=19.5x    frame=20199 fps=466 q=-0.0 size=N/A time=00:14:02.46 bitrate=N/A speed=19.4x    frame=20431 fps=466 q=-0.0 size=N/A time=00:14:12.14 bitrate=N/A speed=19.4x    frame=20663 fps=466 q=-0.0 size=N/A time=00:14:21.81 bitrate=N/A speed=19.4x    frame=20893 fps=466 q=-0.0 size=N/A time=00:14:31.41 bitrate=N/A speed=19.4x    frame=21138 fps=466 q=-0.0 size=N/A time=00:14:41.63 bitrate=N/A speed=19.4x    frame=21369 fps=466 q=-0.0 size=N/A time=00:14:51.26 bitrate=N/A speed=19.4x    frame=21611 fps=466 q=-0.0 size=N/A time=00:15:01.35 bitrate=N/A speed=19.4x    frame=21882 fps=466 q=-0.0 size=N/A time=00:15:12.66 bitrate=N/A speed=19.4x    frame=22132 fps=466 q=-0.0 size=N/A time=00:15:23.08 bitrate=N/A speed=19.5x    frame=22395 fps=467 q=-0.0 size=N/A time=00:15:34.05 bitrate=N/A speed=19.5x    frame=22659 fps=467 q=-0.0 size=N/A time=00:15:45.06 bitrate=N/A speed=19.5x    frame=22910 fps=467 q=-0.0 size=N/A time=00:15:55.53 bitrate=N/A speed=19.5x    frame=23149 fps=467 q=-0.0 size=N/A time=00:16:05.50 bitrate=N/A speed=19.5x    frame=23403 fps=468 q=-0.0 size=N/A time=00:16:16.10 bitrate=N/A speed=19.5x    frame=23616 fps=467 q=-0.0 size=N/A time=00:16:24.98 bitrate=N/A speed=19.5x    frame=23862 fps=467 q=-0.0 size=N/A time=00:16:35.24 bitrate=N/A speed=19.5x    frame=24064 fps=466 q=-0.0 size=N/A time=00:16:43.66 bitrate=N/A speed=19.5x    frame=24284 fps=466 q=-0.0 size=N/A time=00:16:52.84 bitrate=N/A speed=19.4x    frame=24465 fps=465 q=-0.0 size=N/A time=00:17:00.39 bitrate=N/A speed=19.4x    frame=24666 fps=464 q=-0.0 size=N/A time=00:17:08.77 bitrate=N/A speed=19.4x    frame=24911 fps=464 q=-0.0 size=N/A time=00:17:18.99 bitrate=N/A speed=19.4x    frame=25181 fps=465 q=-0.0 size=N/A time=00:17:30.25 bitrate=N/A speed=19.4x    frame=25430 fps=465 q=-0.0 size=N/A time=00:17:40.64 bitrate=N/A speed=19.4x    frame=25695 fps=465 q=-0.0 size=N/A time=00:17:51.69 bitrate=N/A speed=19.4x    frame=25963 fps=466 q=-0.0 size=N/A time=00:18:02.87 bitrate=N/A speed=19.4x    frame=26214 fps=466 q=-0.0 size=N/A time=00:18:13.34 bitrate=N/A speed=19.4x    frame=26410 fps=465 q=-0.0 size=N/A time=00:18:21.51 bitrate=N/A speed=19.4x    frame=26682 fps=466 q=-0.0 size=N/A time=00:18:32.86 bitrate=N/A speed=19.4x    frame=26830 fps=464 q=-0.0 size=N/A time=00:18:39.03 bitrate=N/A speed=19.4x    frame=27068 fps=464 q=-0.0 size=N/A time=00:18:48.96 bitrate=N/A speed=19.4x    frame=27284 fps=464 q=-0.0 size=N/A time=00:18:57.97 bitrate=N/A speed=19.3x    frame=27524 fps=464 q=-0.0 size=N/A time=00:19:07.98 bitrate=N/A speed=19.3x    frame=27790 fps=464 q=-0.0 size=N/A time=00:19:19.07 bitrate=N/A speed=19.4x    frame=28069 fps=465 q=-0.0 size=N/A time=00:19:30.71 bitrate=N/A speed=19.4x    frame=28318 fps=465 q=-0.0 size=N/A time=00:19:41.09 bitrate=N/A speed=19.4x    frame=28526 fps=465 q=-0.0 size=N/A time=00:19:49.77 bitrate=N/A speed=19.4x    frame=28759 fps=464 q=-0.0 size=N/A time=00:19:59.48 bitrate=N/A speed=19.4x    frame=29010 fps=465 q=-0.0 size=N/A time=00:20:09.95 bitrate=N/A speed=19.4x    frame=29263 fps=465 q=-0.0 size=N/A time=00:20:20.51 bitrate=N/A speed=19.4x    frame=29517 fps=465 q=-0.0 size=N/A time=00:20:31.10 bitrate=N/A speed=19.4x    frame=29757 fps=465 q=-0.0 size=N/A time=00:20:41.11 bitrate=N/A speed=19.4x    frame=30006 fps=465 q=-0.0 size=N/A time=00:20:51.50 bitrate=N/A speed=19.4x    frame=30264 fps=465 q=-0.0 size=N/A time=00:21:02.26 bitrate=N/A speed=19.4x    frame=30530 fps=466 q=-0.0 size=N/A time=00:21:13.35 bitrate=N/A speed=19.4x    frame=30756 fps=466 q=-0.0 size=N/A time=00:21:22.78 bitrate=N/A speed=19.4x    frame=30990 fps=466 q=-0.0 size=N/A time=00:21:32.54 bitrate=N/A speed=19.4x    frame=31199 fps=465 q=-0.0 size=N/A time=00:21:41.25 bitrate=N/A speed=19.4x    frame=31417 fps=465 q=-0.0 size=N/A time=00:21:50.35 bitrate=N/A speed=19.4x    frame=31642 fps=465 q=-0.0 size=N/A time=00:21:59.73 bitrate=N/A speed=19.4x    frame=31881 fps=465 q=-0.0 size=N/A time=00:22:09.70 bitrate=N/A speed=19.4x    frame=32113 fps=464 q=-0.0 size=N/A time=00:22:19.37 bitrate=N/A speed=19.4x    frame=32361 fps=465 q=-0.0 size=N/A time=00:22:29.72 bitrate=N/A speed=19.4x    frame=32598 fps=465 q=-0.0 size=N/A time=00:22:39.60 bitrate=N/A speed=19.4x    frame=32824 fps=464 q=-0.0 size=N/A time=00:22:49.03 bitrate=N/A speed=19.4x    frame=33084 fps=465 q=-0.0 size=N/A time=00:22:59.87 bitrate=N/A speed=19.4x    frame=33322 fps=465 q=-0.0 size=N/A time=00:23:09.80 bitrate=N/A speed=19.4x    frame=33537 fps=464 q=-0.0 size=N/A time=00:23:18.77 bitrate=N/A speed=19.4x    frame=33777 fps=464 q=-0.0 size=N/A time=00:23:28.78 bitrate=N/A speed=19.4x    frame=33982 fps=464 q=-0.0 size=N/A time=00:23:37.33 bitrate=N/A speed=19.3x    frame=34217 fps=464 q=-0.0 size=N/A time=00:23:47.13 bitrate=N/A speed=19.3x    frame=34441 fps=464 q=-0.0 size=N/A time=00:23:56.47 bitrate=N/A speed=19.3x    frame=34661 fps=463 q=-0.0 size=N/A time=00:24:05.65 bitrate=N/A speed=19.3x    [Parsed_psnr_10 @ 000001c66f19b640] PSNR y:46.684109 u:49.831181 v:49.602106 average:47.480058 min:42.041620 max:inf
[out#0/null @ 000001c66e864780] video:14928KiB audio:271716KiB subtitle:0KiB other streams:0KiB global headers:0KiB muxing overhead: unknown
frame=34741 fps=463 q=-0.0 Lsize=N/A time=00:24:08.98 bitrate=N/A speed=19.3x    
